<?xml version="1.0" standalone="no"?>
<!DOCTYPE svg PUBLIC "-//W3C//DTD SVG 20010904//EN"
 "http://www.w3.org/TR/2001/REC-SVG-20010904/DTD/svg10.dtd">
<svg version="1.0" xmlns="http://www.w3.org/2000/svg"
 width="342.000000pt" height="118.000000pt" viewBox="0 0 342.000000 118.000000"
 preserveAspectRatio="xMidYMid meet">

<g transform="translate(0.000000,118.000000) scale(0.100000,-0.100000)"
fill="#000000" stroke="none">
<path d="M833 1047 c-46 -23 -83 -44 -83 -47 0 -3 59 -43 130 -90 129 -84 146
-104 115 -130 -18 -15 -20 -61 -3 -78 21 -21 66 -14 84 13 14 22 14 27 0 56
-9 18 -16 44 -16 58 0 22 -15 36 -100 90 -55 34 -100 66 -100 70 0 4 13 15 30
24 l30 18 57 -39 c88 -58 83 -57 83 -18 0 33 -5 38 -68 76 -38 22 -70 40 -73
39 -2 0 -41 -19 -86 -42z m221 -283 c22 -21 3 -56 -27 -52 -28 4 -35 38 -11
55 22 16 19 16 38 -3z"/>
<path d="M283 970 c-38 -23 -63 -67 -63 -110 0 -56 26 -96 100 -155 80 -64 87
-76 72 -111 -20 -42 -72 -25 -72 23 0 21 -4 23 -50 23 -47 0 -50 -1 -50 -26 0
-64 52 -119 115 -125 85 -7 137 24 155 90 20 76 0 111 -119 210 -45 37 -52 47
-49 75 3 27 7 31 33 31 24 0 31 -5 39 -32 8 -31 12 -33 52 -33 43 0 44 1 44
33 -1 99 -119 161 -207 107z"/>
<path d="M1137 893 c-4 -54 -7 -121 -7 -150 0 -61 -18 -86 -56 -77 -49 13 -85
-54 -48 -90 27 -28 56 -18 106 35 l48 51 0 114 c0 63 2 114 5 114 4 0 19 -7
35 -15 30 -15 30 -17 30 -100 0 -47 3 -85 8 -85 4 0 18 7 30 16 20 13 22 24
22 94 l0 79 -77 55 c-43 31 -81 56 -84 56 -3 0 -9 -44 -12 -97z m-51 -257 c15
-12 17 -18 8 -33 -14 -23 -43 -23 -57 -1 -8 12 -7 21 2 32 16 20 22 20 47 2z"/>
<path d="M2111 972 c-61 -33 -71 -67 -71 -232 0 -118 3 -151 18 -179 26 -51
60 -72 119 -73 87 0 143 47 143 122 0 29 -1 30 -49 30 -46 0 -50 -2 -53 -26
-4 -35 -31 -53 -55 -38 -16 10 -18 31 -21 154 -3 155 2 173 47 168 19 -2 27
-10 29 -28 5 -37 16 -43 62 -35 l42 7 -5 40 c-6 46 -29 75 -74 94 -44 19 -92
17 -132 -4z"/>
<path d="M1380 784 c0 -154 3 -203 15 -228 42 -89 194 -91 242 -3 15 27 19 64
21 230 l4 197 -51 0 -51 0 0 -186 c0 -189 -6 -224 -38 -224 -39 0 -42 18 -42
217 l0 193 -50 0 -50 0 0 -196z"/>
<path d="M1720 734 l0 -245 48 3 47 3 3 98 c4 131 20 130 57 -3 l28 -100 49 0
c29 0 48 4 48 11 0 6 -14 55 -31 109 l-31 98 21 21 c60 60 53 177 -14 229 -24
19 -40 22 -126 22 l-99 0 0 -246z m162 149 c38 -35 12 -113 -39 -113 -22 0
-23 3 -23 65 0 60 2 65 22 65 12 0 30 -7 40 -17z"/>
<path d="M2380 734 l0 -245 48 3 47 3 3 98 3 97 34 0 34 0 3 -97 3 -98 48 -3
47 -3 0 245 0 246 -50 0 -50 0 0 -100 0 -100 -35 0 -35 0 0 100 0 100 -50 0
-50 0 0 -246z"/>
<path d="M608 882 l-68 -45 0 -98 c0 -55 2 -99 4 -99 2 0 61 34 131 75 69 41
133 75 140 75 8 0 23 -13 35 -30 36 -51 100 -37 100 22 0 31 -37 62 -63 53 -8
-4 -28 0 -44 8 -28 15 -31 14 -133 -49 -91 -56 -106 -62 -112 -47 -18 46 -9
59 67 103 42 23 74 44 73 45 -2 1 -16 9 -33 17 -29 15 -32 14 -97 -30z m317
-102 c0 -20 -5 -25 -25 -25 -20 0 -26 6 -28 28 -3 26 -1 28 25 25 22 -2 28 -8
28 -28z"/>
<path d="M763 720 c-10 -12 -30 -33 -45 -48 -28 -26 -28 -28 -28 -150 0 -114
-1 -124 -17 -117 -10 4 -26 10 -35 12 -15 5 -18 18 -18 94 0 49 -2 89 -5 89
-3 0 -17 -7 -30 -16 -23 -15 -25 -22 -25 -98 l0 -81 82 -50 c44 -28 85 -51 89
-53 5 -2 10 70 11 160 l3 163 43 6 c46 6 62 20 62 56 0 22 -33 53 -57 53 -7 0
-21 -9 -30 -20z m61 -22 c8 -14 7 -21 -6 -34 -30 -30 -75 9 -48 42 16 18 39
15 54 -8z"/>
<path d="M1193 570 c-125 -75 -163 -88 -163 -55 0 18 -34 45 -57 45 -25 0 -53
-30 -53 -57 0 -29 32 -54 66 -51 16 1 39 -4 52 -11 21 -11 33 -6 121 48 54 34
104 61 110 61 8 0 11 -13 9 -37 -3 -35 -8 -41 -68 -75 -36 -21 -66 -42 -68
-47 -1 -4 10 -14 27 -20 27 -12 34 -9 95 31 l66 43 0 103 c0 56 -1 102 -2 102
-2 -1 -62 -37 -135 -80z m-189 -52 c8 -14 7 -21 -6 -34 -30 -30 -75 9 -48 42
16 18 39 15 54 -8z"/>
<path d="M797 582 c-21 -23 -22 -56 -2 -72 8 -7 15 -27 15 -45 0 -31 6 -37
105 -98 115 -70 112 -63 49 -100 -6 -3 -43 14 -83 39 l-72 45 3 -38 c3 -34 8
-40 70 -76 l67 -38 91 46 92 46 -89 56 c-48 30 -109 69 -135 85 -50 31 -60 56
-33 78 33 28 4 90 -42 90 -11 0 -27 -8 -36 -18z m67 -24 c8 -14 7 -21 -6 -34
-30 -30 -75 9 -48 42 16 18 39 15 54 -8z"/>
<path d="M1360 415 c0 -8 7 -15 15 -15 12 0 15 -15 15 -76 0 -66 2 -75 18 -72
14 3 18 16 20 76 2 55 6 72 17 72 8 0 15 7 15 15 0 11 -12 15 -50 15 -38 0
-50 -4 -50 -15z"/>
<path d="M1700 340 c0 -73 3 -90 15 -90 11 0 15 12 15 50 0 38 4 50 15 50 11
0 15 -12 15 -50 0 -38 4 -50 15 -50 11 0 15 12 15 53 0 62 -10 82 -39 74 -18
-4 -21 -1 -21 24 0 19 -5 29 -15 29 -12 0 -15 -17 -15 -90z"/>
<path d="M2040 340 c0 -73 3 -90 15 -90 12 0 15 17 15 90 0 73 -3 90 -15 90
-12 0 -15 -17 -15 -90z"/>
<path d="M2310 415 c0 -8 9 -15 20 -15 11 0 20 7 20 15 0 8 -9 15 -20 15 -11
0 -20 -7 -20 -15z"/>
<path d="M2640 340 c0 -73 3 -90 15 -90 10 0 15 11 15 35 0 24 5 35 15 35 19
0 55 36 55 55 0 25 -38 55 -70 55 l-30 0 0 -90z m58 32 c2 -15 -2 -22 -12 -22
-11 0 -16 9 -16 26 0 31 23 28 28 -4z"/>
<path d="M3044 417 c-3 -8 -4 -47 -2 -88 l3 -74 48 -3 c37 -2 47 0 47 12 0 11
-10 16 -30 16 l-30 0 0 75 c0 61 -3 75 -15 75 -9 0 -18 -6 -21 -13z"/>
<path d="M3287 424 c-4 -4 -7 -16 -7 -26 0 -11 -7 -18 -20 -18 -23 0 -40 -28
-40 -65 0 -47 17 -65 61 -65 l40 0 -3 87 c-3 79 -12 106 -31 87z m-7 -109 c0
-19 -4 -35 -10 -35 -5 0 -10 16 -10 35 0 19 5 35 10 35 6 0 10 -16 10 -35z"/>
<path d="M2868 393 c-2 -10 -2 -45 1 -78 5 -53 9 -60 29 -63 15 -2 22 2 22 12
0 9 -4 16 -10 16 -14 0 -12 64 3 79 10 11 10 14 0 18 -7 3 -13 11 -13 19 0 20
-27 17 -32 -3z"/>
<path d="M3158 393 c-2 -10 -2 -45 1 -78 5 -53 9 -60 29 -63 15 -2 22 2 22 12
0 9 -4 16 -10 16 -14 0 -12 64 3 79 10 11 10 14 0 18 -7 3 -13 11 -13 19 0 20
-27 17 -32 -3z"/>
<path d="M1493 373 c-8 -3 -13 -25 -13 -59 0 -50 2 -54 27 -60 28 -7 54 4 61
26 4 10 -3 11 -27 7 -24 -5 -31 -3 -29 6 3 6 17 13 31 15 20 3 27 9 27 26 0
38 -35 56 -77 39z m38 -36 c-1 -12 -15 -9 -19 4 -3 6 1 10 8 8 6 -3 11 -8 11
-12z"/>
<path d="M1602 368 c-7 -7 -12 -30 -12 -53 0 -23 5 -46 12 -53 15 -15 51 -15
66 0 17 17 15 38 -3 38 -8 0 -15 -4 -15 -10 0 -5 -7 -10 -15 -10 -10 0 -15 11
-15 35 0 24 5 35 15 35 8 0 15 -4 15 -10 0 -5 7 -10 15 -10 8 0 15 6 15 13 0
19 -21 37 -45 37 -12 0 -26 -5 -33 -12z"/>
<path d="M1810 314 c0 -57 2 -64 20 -64 17 0 20 7 20 50 0 28 5 50 10 50 6 0
10 -22 10 -50 0 -43 3 -50 20 -50 17 0 20 7 20 39 0 69 -13 89 -59 89 l-41 1
0 -65z"/>
<path d="M1930 361 c-26 -49 -4 -111 38 -111 39 0 52 17 52 65 0 23 -5 46 -12
53 -19 19 -66 15 -78 -7z m50 -46 c0 -19 -4 -35 -10 -35 -5 0 -10 16 -10 35 0
19 5 35 10 35 6 0 10 -16 10 -35z"/>
<path d="M2102 368 c-7 -7 -12 -30 -12 -53 0 -46 13 -65 45 -65 32 0 45 19 45
65 0 46 -13 65 -45 65 -12 0 -26 -5 -33 -12z m48 -53 c0 -24 -5 -35 -15 -35
-10 0 -15 11 -15 35 0 24 5 35 15 35 10 0 15 -11 15 -35z"/>
<path d="M2211 367 c-6 -6 -11 -30 -11 -53 0 -44 19 -70 45 -60 8 3 15 1 15
-5 0 -6 -9 -13 -20 -16 -28 -7 -25 -33 3 -33 38 0 47 19 47 101 l0 77 -34 0
c-19 0 -39 -5 -45 -11z m49 -53 c0 -24 -4 -34 -12 -32 -24 8 -22 68 2 68 5 0
10 -16 10 -36z"/>
<path d="M2310 315 c0 -58 2 -65 20 -65 18 0 20 7 20 65 0 58 -2 65 -20 65
-18 0 -20 -7 -20 -65z"/>
<path d="M2382 368 c-7 -7 -12 -30 -12 -53 0 -23 5 -46 12 -53 15 -15 51 -15
66 0 21 21 13 30 -19 23 -24 -5 -30 -4 -27 6 3 8 17 15 31 17 47 6 31 72 -18
72 -12 0 -26 -5 -33 -12z m46 -29 c-2 -6 -8 -10 -13 -10 -5 0 -11 4 -13 10 -2
6 4 11 13 11 9 0 15 -5 13 -11z"/>
<path d="M2492 368 c-20 -20 -14 -48 13 -60 14 -6 25 -18 25 -27 0 -12 -3 -12
-12 -3 -17 17 -38 15 -38 -3 0 -19 48 -31 69 -18 28 18 24 42 -8 61 -40 22
-40 35 0 27 29 -7 30 -6 20 14 -13 23 -50 28 -69 9z"/>
<path d="M2754 353 c22 -92 27 -103 44 -103 14 0 22 15 34 65 14 61 14 65 -2
65 -12 0 -20 -11 -26 -37 l-8 -38 -5 35 c-4 23 -12 36 -25 38 -16 3 -18 0 -12
-25z"/>
<path d="M2947 283 c-13 -12 -7 -33 8 -33 8 0 15 9 15 20 0 20 -11 26 -23 13z"/>
<path d="M3347 283 c-13 -12 -7 -33 8 -33 8 0 15 9 15 20 0 20 -11 26 -23 13z"/>
</g>
</svg>
